<?xml version="1.0" encoding="UTF-8" standalone="no"?>
<svg
   xmlns:dc="http://purl.org/dc/elements/1.1/"
   xmlns:cc="http://creativecommons.org/ns#"
   xmlns:rdf="http://www.w3.org/1999/02/22-rdf-syntax-ns#"
   xmlns:svg="http://www.w3.org/2000/svg"
   xmlns="http://www.w3.org/2000/svg"
   xmlns:sodipodi="http://sodipodi.sourceforge.net/DTD/sodipodi-0.dtd"
   xmlns:inkscape="http://www.inkscape.org/namespaces/inkscape"
   viewBox="0 0 480 800"
   version="1.1"
   id="svg7449"
   sodipodi:docname="Hand.svg"
   inkscape:version="0.92.4 (5da689c313, 2019-01-14)">
  <metadata
     id="metadata7453">
    <rdf:RDF>
      <cc:Work
         rdf:about="">
        <dc:format>image/svg+xml</dc:format>
        <dc:type
           rdf:resource="http://purl.org/dc/dcmitype/StillImage" />
        <dc:title></dc:title>
      </cc:Work>
    </rdf:RDF>
  </metadata>
  <sodipodi:namedview
     pagecolor="#ffffff"
     bordercolor="#666666"
     borderopacity="1"
     objecttolerance="10"
     gridtolerance="10"
     guidetolerance="10"
     inkscape:pageopacity="0"
     inkscape:pageshadow="2"
     inkscape:window-width="921"
     inkscape:window-height="788"
     id="namedview7451"
     showgrid="false"
     inkscape:zoom="0.295"
     inkscape:cx="-151.52542"
     inkscape:cy="671.18644"
     inkscape:window-x="793"
     inkscape:window-y="261"
     inkscape:window-maximized="0"
     inkscape:current-layer="svg7449" />
  <defs
     id="defs7425" />
  <g
     id="g7447"
     style="image-rendering:optimizeQuality"
     transform="translate(27.118644,-57.627119)">
    <path
       d="m 154.6461,395.2418 c -7.7295,-21.7575 -7.1608,-41.1386 1.1255,-43.5391 6.857,-1.9864 18.0864,10.7466 30.8032,23.8677 5.9946,6.1852 11.7593,12.5734 17.8095,18.7081 1.9744,-4.5643 5.418,-7.9809 9.6876,-9.979 5.5,-2.5739 11.9686,-2.6165 18.4184,-0.6713 7.0386,-3.943 14.9359,-3.6974 21.3908,-0.1592 8.0405,4.4073 13.1209,13.8468 16.946,24.0691 1.8979,5.0719 3.4385,10.2653 4.8692,15.5104 5.017,18.3929 8.9707,36.4581 2.7065,50.2542 -8.2235,18.1111 -31.3575,27.1395 -56.4322,26.3832 -28.2502,-0.8521 -53.5894,-14.6763 -65.1142,-37.1801 -8.1159,-15.8474 -8.4118,-32.2187 0.1564,-37.9076 8.4313,-5.5979 22.2969,0.611 31.3255,15.0007 -16.0516,-11.5293 -27.4902,-26.8994 -33.6922,-44.3571 z"
       id="path7427"
       inkscape:connector-curvature="0"
       style="opacity:1;fill:#000000" />
    <path
       d="m 159.7512,399.7808 c -8.6103,-22.2646 -8.7198,-41.9768 -1.2346,-44.0354 6.261,-1.722 16.9737,12.5295 30.2865,26.1364 5.4837,5.605 10.3905,11.7546 16.2047,17.0225 1.7965,-4.153 4.9299,-7.2618 8.8147,-9.0798 5.0045,-2.342 10.8902,-2.3808 16.7588,-0.6109 6.4045,-3.5877 13.5902,-3.3642 19.4635,-0.1449 7.316,4.0102 11.9386,12.5992 15.4191,21.9005 1.7269,4.6149 3.1286,9.3403 4.4304,14.1128 4.565,16.7356 8.1625,33.1731 2.4627,45.7261 -7.4826,16.4793 -28.5321,24.6941 -51.3474,24.006 -25.7048,-0.7753 -48.7609,-13.3539 -59.2472,-33.8301 -7.3847,-14.4195 -7.6539,-29.3156 0.1423,-34.4919 7.6715,-5.0936 20.2878,0.5559 28.503,13.6491 -14.3659,-10.4721 -24.5459,-24.5597 -30.6565,-40.3604 z"
       id="path7429"
       inkscape:connector-curvature="0"
       style="opacity:1;fill:#ffffff" />
    <path
       d="m 168.5855,458.7673 c 4.3739,7.1424 10.0376,13.237 16.5736,18.2485 8.1074,6.2163 17.5117,10.702 27.6061,13.6634 -4.5641,-0.0806 -9.0128,-0.943 -13.3504,-2.2141 -13.9253,-4.0806 -26.1698,-11.5024 -33.6624,-22.7379 -5.6977,-8.544 -8.1889,-18.741 -6.8097,-29.44 z"
       id="path7431"
       inkscape:connector-curvature="0"
       style="opacity:1;fill:#a7a7a8" />
    <path
       d="m 156.3635,357.9928 c -1.2524,6.6916 -1.5831,13.447 -0.775,20.0764 0.6729,5.5205 2.1259,10.9322 4.4555,16.0572 l 2.5333,-17.5764 c 0.2825,-1.9599 -1.6242,-3.4071 -2.59,-5.3404 -1.0496,-2.101 -0.9666,-4.7428 -1.4241,-7.2763 -0.3755,-2.0798 -1.0896,-4.1052 -2.1997,-5.9405 z"
       id="path7433"
       inkscape:connector-curvature="0"
       style="opacity:1;fill:#b6b6b6" />
    <path
       d="m 171.8617,425.415 c 1.278,1.2447 2.4407,2.6009 3.5046,4.0242 1.0358,1.3858 1.9323,2.8564 3.0258,4.2105 1.7023,2.1079 3.8241,3.9842 6.0958,5.633 l -9.3322,-12.9116 z"
       id="path7435"
       inkscape:connector-curvature="0"
       style="opacity:1;fill:#000000" />
    <path
       d="m 210.8473,399.4278 c 3.5059,-3.2074 7.437,-5.7853 11.6302,-7.0635 2.6818,-0.8174 5.4569,-1.1266 8.2546,-0.7217 5.6775,-2.4514 11.4558,-3.1946 15.7335,-1.3031 2.4634,1.0893 4.3093,2.9947 5.2167,5.5947 -3.7465,-2.0337 -7.7713,-2.8849 -11.6013,-2.1409 -3.055,0.5935 -5.8368,2.176 -7.9311,4.691 -3.8155,-1.3427 -7.7645,-1.9647 -11.6777,-1.6984 -3.3263,0.2264 -6.5927,1.0898 -9.6249,2.6419 z"
       id="path7437"
       inkscape:connector-curvature="0"
       style="opacity:1;fill:#b6b6b6" />
    <path
       d="m 281.5052,448.3129 c -5.9338,11.1606 -12.8677,22.0411 -20.6193,29.1849 -3.3616,3.0979 -6.791,5.455 -10.707,7.6442 -8.5603,4.7856 -19.0789,8.2935 -29.6236,11.0989 7.6763,23.4085 24.7008,36.9899 38.8279,32.6327 8.8262,-2.7222 15.1454,-13.6853 23.5224,-23.0533 7.3277,-8.1944 15.9931,-14.9342 18.5638,-23.5532 3.8028,-12.7502 -4.1233,-26.9696 -19.9642,-33.9542 z"
       id="path7439"
       inkscape:connector-curvature="0"
       style="opacity:1;fill:#000000" />
    <path
       d="m 275.6117,457.982 c -1.4276,1.5145 -2.8168,3.0641 -4.178,4.6379 -3.6526,4.2233 -6.9803,8.5474 -11.2484,12.4869 -8.9297,8.2421 -21.7927,14.8059 -34.9712,20.0263 6.344,19.2688 21.197,29.8924 33.6322,25.7529 7.9069,-2.6321 13.4954,-12.3072 20.96,-20.542 6.8986,-7.6103 15.1487,-13.6683 16.5415,-20.9874 1.9185,-10.0815 -6.8347,-19.7929 -20.7361,-21.3746 z"
       id="path7441"
       inkscape:connector-curvature="0"
       style="opacity:1;fill:#ffb42e" />
    <path
       d="m 260.6467,512.2379 c -2.3224,1.4776 -4.8123,2.6503 -7.5642,2.7101 -4.8885,0.1062 -10.2341,-3.1602 -14.6612,-8.1158 4.7876,1.9191 9.8342,2.2237 14.7509,1.0831 8.8388,-2.0504 15.783,-7.3241 16.7312,-6.2477 0.873,0.991 -2.5006,6.2719 -9.2567,10.5703 z"
       id="path7443"
       inkscape:connector-curvature="0"
       style="opacity:1;fill:#835a00" />
    <path
       d="m 230.1001,501.4558 c -2.6037,-0.278 -4.7426,-2.8039 -5.084,-6.4724 5.3359,-1.6272 10.3704,-4.0039 15.1059,-6.9071 6.1777,-3.7875 11.7508,-8.626 17.2628,-13.5245 6.1113,-5.431 12.0261,-11.0675 17.8719,-16.7894 2.0154,0.2735 3.4794,1.2609 3.939,2.714 1.6128,5.0978 -9.4119,13.9858 -22.7352,22.5592 -4.229,2.7213 -8.5524,5.2962 -12.396,8.4437 -5.6157,4.5987 -9.9559,10.4046 -13.9644,9.9765 z"
       id="path7445"
       inkscape:connector-curvature="0"
       style="opacity:1;fill:#835a00" />
  </g>
</svg>
